/* XPM */
static char *result[] = {
/* columns rows colors chars-per-pixel */
"40 40 134 2 ",
"   c #2F2F2F",
".  c #343434",
"X  c #373737",
"o  c #393939",
"O  c gray23",
"+  c #3C3C3C",
"@  c #3E3E3E",
"#  c gray25",
"$  c #414141",
"%  c gray26",
"&  c #434342",
"*  c #434343",
"=  c #444443",
"-  c #444444",
";  c #454544",
":  c gray27",
">  c #454645",
",  c #464645",
"<  c #464646",
"1  c #464746",
"2  c #474746",
"3  c gray28",
"4  c #484747",
"5  c #484847",
"6  c #484848",
"7  c #494848",
"8  c #484948",
"9  c #494948",
"0  c #494949",
"q  c #4A4A49",
"w  c gray29",
"e  c #4A4B4A",
"r  c #4B4B4A",
"t  c #4B4B4B",
"y  c #4C4B4B",
"u  c #4B4C4B",
"i  c #4C4C4B",
"p  c #4C4C4C",
"a  c #4D4C4C",
"s  c #4C4D4C",
"d  c #4D4D4C",
"f  c gray30",
"g  c #4D4E4D",
"h  c #4E4E4D",
"j  c #4E4E4E",
"k  c #4F4E4E",
"l  c #4E4F4E",
"z  c #4F4F4E",
"x  c #4F4E4F",
"c  c gray31",
"v  c #504F4F",
"b  c #4F504F",
"n  c #50504F",
"m  c #505050",
"M  c #515050",
"N  c #505150",
"B  c #515150",
"V  c #515151",
"C  c #525151",
"Z  c #515251",
"A  c #525251",
"S  c gray32",
"D  c #535252",
"F  c #525352",
"G  c #535352",
"H  c #535353",
"J  c #545353",
"K  c #535453",
"L  c #545453",
"P  c gray33",
"I  c #555454",
"U  c #545554",
"Y  c #555554",
"T  c #555555",
"R  c #565554",
"E  c #565555",
"W  c #555655",
"Q  c #565655",
"!  c #575655",
"~  c #565656",
"^  c #575656",
"/  c #565756",
"(  c #575756",
")  c gray34",
"_  c #585757",
"`  c #575856",
"'  c #575857",
"]  c #585857",
"[  c #585858",
"{  c #595858",
"}  c #585958",
"|  c #595958",
" . c gray35",
".. c #5A5959",
"X. c #595A59",
"o. c #5A5A59",
"O. c #5A5A5A",
"+. c #5B5A5A",
"@. c #5B5B5A",
"#. c #5B5A5B",
"$. c #5B5B5B",
"%. c #5C5B5B",
"&. c #5B5C5B",
"*. c #5C5C5B",
"=. c #5C5B5C",
"-. c gray36",
";. c #5D5C5C",
":. c #5C5D5C",
">. c #5D5D5C",
",. c #5D5D5D",
"<. c #5D5E5D",
"1. c #5E5E5D",
"2. c #5E5D5E",
"3. c gray37",
"4. c #5F5E5E",
"5. c #5E5F5E",
"6. c #5F5F5E",
"7. c #5F5F5F",
"8. c #60605F",
"9. c #606060",
"0. c #616060",
"q. c #616160",
"w. c gray38",
"e. c #616261",
"r. c #626261",
"t. c #626262",
"y. c #636362",
"u. c gray39",
"i. c #656564",
"p. c #666665",
"a. c #676766",
"s. c #686868",
"d. c #686968",
"f. c DimGray",
/* pixels */
"W &. .L G ~ O.X.H 7 a H L A S L Y H m t c A H S n G z n n 0 P P A B n g Z A j < ",
"6.-.~ S H ~ ) ) P c S T T H S I I G A m V I I D n d 9 r h t Q V d i h l f d d p ",
",.[ B c ~ _ [ ^ L S ) $.[ L J J G A A A A ~ ^ L A n B A c t ] M i i j n d q q t ",
"O.H f h ) ) O.) D S [ -.| L L A A A B V B Q ) T G ( -.o.A w ) M f h z m z r 9 6 ",
",.V f c H H  .~ V P ~ H L G n V Y G B G B Y Q L B | ,. .V t A d i f h n z h i q ",
"~ A z j c c c n L $.W l n P S n A ~  .) n n n h d G H H H m c w w f m c z h z S ",
"~ A n m V f N Y Q G ( V N G P L G Y ^ T A h f f h Y T T V 0 Y d r p p d f j h q ",
"3.U B B c d G ] ] B 1.| Y K L L Q Q R Q A c c B A A L P m 0 } c r w 0 r j V A g ",
"} H n n B c S Q Y h >.@.Q A A A Y Y A h z B A G L f p h d 3 U c q 5 2 2 t V H s ",
"# t h n X.H c m f $ h S c f V B n n q O q c n c c j = , 2 + q f q , : $ * r t + ",
"P Q / W U (  .3.7.P P ..4.3.) ( ] ] F 5 w n S P ] L n z i 2 H [ T S P H A A z 3 ",
"P S m c l V H ) -.9.) o.8.u.7.( Y Y L B n *.;.|  .A h d q - H ~ T H A H P B r , ",
"H j t r d f f B | t.| ( *.9.1.Y L L L K ( y.8.) T A Q G w % H L B c A H L A z i ",
"H d q q t t t z ~ 1. .Q | -.o.L Y Y W ( o.q.1.~ P T 1.o.s % K G h i m H H L Y T ",
"A r r i 5 t j V H P o.o.@.;.*.G Q ( | 7.^ ( o.*.o. .O.( z - H A z d t z S L Q $.",
"h i z G C L L Y S t o.%.7.0.O.Y ) O.>.>. .| *.2.#.O.O.~ B h L h t c ~ m n n V P ",
"L m S ~ ~ G A K P V o.{ ] ] Q ] ~ ] O.*.-.~ ) =.4.] ~ P V b | P m n S m P V h c ",
"| H H T T G V N H O.| ] ~ Y Y E J Y ( [ ,.~ ~ $.6.S c m V m @.Q B z j z S A A ( ",
"W U ~ ) ~ Y Y A G $.[ ~ I I Q Y B G Y V -.) ~  .O.t 5 i p < ] Q A h r V S S H Q ",
"g / ,.7.%.(  . .T x [ S j B ] | G L H t o.~ P P S 5 = 3 $   V O.Q h r  .[ H w $ ",
"<.<.7.$.m h S Y B 3 S ) ~ L Y ~ Q L A h V V P T j P j u 8 * -.7.,.$.O.V V W P 6 ",
"5.| ) Q z n P A h z G G [ >.] Y G A S ~ ) Y Q ) ~  .T b t w ) ) ( Q G m l H ) ) ",
"O.Y A m z Q T m h S Y m Q @.( ( T H L [ | ( ) $.9.7.O.V 0 8 Y Q A c n L f f G  .",
"[ G j j H ,.( B z S L B G ~ T [ [ ] Q Y [ ~ ^ $.u.7.$.L w < ) ] A k Y ] f 0 p S ",
"$.m r n -.t.@.A h A n V T  .] P [ $.| B *.Y L [ -.[  .[ S 6 -.] H T >.| m i r p ",
"} l r n ( j n z c Y L B L o.6.-._ ) ( L t.G P 8.i.3.[ ) T V } V z G *.] A f f m ",
"S j d n Q ) [ L B H L h V $.p.a.;.[ [ [ O.) 5.s.f.7.T ) ] v O.S h n ~ ( B p f P ",
"j d h A Q O.$.( B c P h B | 6.6.@.[  .-.Q | 7.u.8. .H Q Y r ..B i h H Q B i s H ",
"w t m Q [ )  .Q f - V h n L G n S S S ~ m L |  .L n G Y B 1 T n i g m T H z e 0 ",
"= d T -.1.P P S < . 6 d h j m w w 6 ; & , y D ~ V r Y ] N > V S B l f [  .P 6 o ",
"T Y T P m T O.[ c % p c d e j ) 3.<.Q i ) ( T P L Y [ O.~ h :.[ V v E 7.7.+.M * ",
"+.| o.^ p B [ T j w s d z b h P O.>.o.H [ | *.*.L Y U P G A u.$.n r k ) ) ~ G u ",
";.O.%...V H [ ~ V j g f F Y z Q ) [ ) V ] ) *.1.~ ( / Q Y Y w.[ B z S ~ P G B w ",
"-.O.o. .~ [ O. .U j c Z ' [ z Q Y T G i Q Y ] +. .O.@.O.] Y *.L V P  .( L G n 6 ",
"$.O.~ H P O.-.@.T j S ) O.[ d f m S m 9 Z L Y ! [ -.>.@.( A o.G c S ] Y L I H j ",
"[ ^ E ^  .-.~ G V V ( P T T B V V S S V L Y | @.| >.8.q.>.P O.H c j z n L )  .O.",
"S G Y )  .T L G G V @.T G G A $.7.9.>.P m z G | 8.6.*.@.@.( | Q L A B L o.>.;.O.",
"E J L T ) P Y Q E S O.T S A H w.s.f.e.P m B A Y >.| Y B m Q o.[ Q G c I | ..[ / ",
"( J C S ~ ) [ { H 0 H H L Y ~ w.s.d.5.f m L G G ( B z q 6 N ) ) P n t B J I S t ",
"z z c V Q -.,.[ 0 . 0 m ~ @.*.,.r.y.) @ p B H W ` i q r q 1 p V z q 4 d z ~ V X "
};
