/* XPM */
static char *result[] = {
/* columns rows colors chars-per-pixel */
"40 40 118 2 ",
"   c gray11",
".  c #1D1D1D",
"X  c #1E1E1E",
"o  c gray12",
"O  c #202020",
"+  c gray13",
"@  c #222222",
"#  c #232323",
"$  c gray14",
"%  c #252525",
"&  c gray15",
"*  c #272727",
"=  c #282828",
"-  c gray16",
";  c #2A2A2A",
":  c gray17",
">  c #2C2C2C",
",  c #2D2D2D",
"<  c gray18",
"1  c #2F2F2F",
"2  c gray19",
"3  c #313131",
"4  c #323232",
"5  c gray20",
"6  c #343434",
"7  c #353535",
"8  c gray21",
"9  c #373737",
"0  c gray22",
"q  c #393939",
"w  c #3A3A3A",
"e  c gray23",
"r  c #3C3C3C",
"t  c gray24",
"y  c #3E3E3E",
"u  c #3F3F3F",
"i  c gray25",
"p  c #414141",
"a  c gray26",
"s  c #434343",
"d  c #444444",
"f  c gray27",
"g  c #464646",
"h  c gray28",
"j  c #484848",
"k  c #494949",
"l  c gray29",
"z  c #4B4B4B",
"x  c #4C4C4C",
"c  c gray30",
"v  c #4E4E4E",
"b  c gray31",
"n  c #505050",
"m  c #515151",
"M  c gray32",
"N  c #535353",
"B  c gray33",
"V  c #555555",
"C  c #565656",
"Z  c gray34",
"A  c #585858",
"S  c gray35",
"D  c #5A5A5A",
"F  c #5B5B5B",
"G  c gray36",
"H  c #5D5D5D",
"J  c gray37",
"K  c #5F5F5F",
"L  c #606060",
"P  c gray38",
"I  c #626262",
"U  c gray39",
"Y  c #646464",
"T  c #656565",
"R  c gray40",
"E  c #676767",
"W  c #686868",
"Q  c DimGray",
"!  c #6A6A6A",
"~  c gray42",
"^  c #6D6D6D",
"/  c gray43",
"(  c #6F6F6F",
")  c #717171",
"_  c #727272",
"`  c gray45",
"'  c #747474",
"]  c gray46",
"[  c #767676",
"{  c #777777",
"}  c gray47",
"|  c #797979",
" . c gray48",
".. c #7B7B7B",
"X. c #7C7C7C",
"o. c gray49",
"O. c #7E7E7E",
"+. c gray50",
"@. c #808080",
"#. c #818181",
"$. c #888888",
"%. c gray54",
"&. c #8B8B8B",
"*. c gray55",
"=. c #8D8D8D",
"-. c #8E8E8E",
";. c gray56",
":. c #909090",
">. c gray57",
",. c #929292",
"<. c #939393",
"1. c gray58",
"2. c #959595",
"3. c gray59",
"4. c #979797",
"5. c #989898",
"6. c gray60",
"7. c #9A9A9A",
/* pixels */
"Y T c 6 6 6 7 7 7 7 7 6 j Z S 6.6.[ C C k h ( 6.6.m m s 7 7 7 7 g N n 8 7 d N N ",
"U U z 3 3 4 3 3 3 3 3 2 d B C 5.5.` N N g d ^ 5.5.v c i 3 4 4 4 d m c 5 3 a n m ",
"z z l l l k k V U L l j P ] ] o.o.} ] ) y q W 5.4.) ) J k h > - 9 a p i i p p a ",
"4 3 l Y Y U U ..6.<.R I #.6.4.L L O.6.>.7 < I 5.5.5.6.+.U J % X - 3 6 b n i 3 4 ",
"4 4 j L L L L { 1.-.U K X.1.>.K K  .<.*.w 5 I <.<.2.2.X.I H * O , 8 0 v b p 6 6 ",
"4 4 : $ $ 6 7 9 q 9 % # 2 w q 7 6 8 0 y %.:.Y 0 0 B B N m m x z ` >.%.M b Z K K ",
"4 4 = . X 1 3 2 3 1 o X - 4 4 3 2 2 1 8 ,.6.T 1 1 v b b b n n b  .7.<.M b D U Y ",
"j h v V B j h h h g q 0 3 ; : a a m J L ] { F y u a a a a a a p S ! E s p b D F ",
"U U o.6.3.R I I U I A Z q o + Z C | 6.<.M v b n n 4 3 3 3 3 2 2 2 2 2 3 3 p n n ",
"G G ' -.&.~ E U H H B N 0 + # N M ` ,.*.n x c c c 7 6 0 e e e e 0 8 8 9 9 a c c ",
"# @ > 9 e =.2.Q 5 6 6 7 5 4 3 6 5 h D Z 7 5 6 6 6 c c ^ ,.,.,.,.] K L L P k 6 6 ",
"o X * 2 7 :.6.! 2 3 4 4 4 4 4 4 3 d C B 6 4 4 4 4 b b ) 6.6.6.6. .U U Y Y k 4 4 ",
"; ; 9 f h ( ` J f d 5 4 t h g g g d a p 5 4 < = * M M P _ ) L J m h g t t 9 4 5 ",
"4 3 s V B B B V C M 6 3 g C V V C a 3 3 4 4 - X . B V B N m 4 1 2 2 1 X X - 4 5 ",
"6 6 f Z Z V V V V M 7 4 h Z Z Z Z d 4 5 5 6 : + o Z Z C C B 6 3 5 7 5 + + : 5 6 ",
"6.6.6.6.3.R I G V Z I I @.6.6.6.6.X.U I Z Z H U U 5.6.6.6.<.V v | 7.2.T U S n n ",
"5.5.5.5.3.R I G C Z I I @.6.5.5.6.X.I I Z C H U I 5.6.6.6.<.V v } 6.1.T I A b n ",
"` ` ` ` ` G F x 0 r D F Q ] ' ' ] H j j s s p u y P P P P L S A H P L A A A A S ",
"N N N N N B V r . # M C V B B B V p 2 3 3 3 * .   1 1 1 1 4 H P d < 3 x c A P I ",
"B B C A A A S i + * m B N N N V V d 5 6 7 6 , % % 9 9 7 5 8 L T l 7 0 m M F Y T ",
"L L | 1.<.1.1.{ M n 8 6 6 5 6 C C V N B K K } >.>.,.,. .K U :.2.<.>.>.<.,.<.<.1.",
"P P X.6.6.6.6...C N 7 4 4 3 5 C C C C Z I I o.6.6.6.6.+.I R <.6.6.5.5.4.4.3.4.5.",
"F F K Y Y T T M e w 5 4 u l k s s c C V z k U O.o./ ^ G k z I Y Y Y W 2.4.$...X.",
"V V s 1 1 1 2 = X + 3 4 c U P 2 2 d C N 5 2 k I P p p q 1 1 1 1 < < 9 1.5. .L P ",
"V V s 1 1 1 2 = X + 3 3 x I K < 1 d C B 6 4 l U I a p 0 < < < < 1 < 0 1.6.X.I U ",
"I I P P Y ,.4.Q 3 8 B V  .5.5.4.4.I 3 3 O X = 3 2 2.4.4.3.4.4.4.} L G 5 3 4 4 5 ",
"U U U I T 1.6.~ 3 7 B C ..6.6.6.6.I 2 1 X . & 1 < 3.5.5.5.5.5.5.| P G 3 1 3 4 4 ",
"a a b G H [ | P a s f f A E W | | K h k C Z F L L } } ..O.O.O.O.X. .} P P s - ; ",
"X . q C V V V C C M 6 3 2 2 3 V V G I R 2.6.5.5.6.V N D P P P L @.6.6.6.7.Z X o ",
"# # w N N N N N N n 9 7 7 6 7 N N S K I >.1.3.5.6.M M A K K J J  .:.:.:.>.C # $ ",
"m m s 7 7 7 7 7 7 q F J A N M 7 7 7 8 q Y R O.5.6.7 6 7 8 8 8 7 0 w q q w x G G ",
"C C s 2 2 2 2 2 2 7 L U G Z C 3 4 4 3 6 K I o.6.6.4 3 4 4 4 3 3 2 2 1 1 < k P I ",
"H G U ~ Q b x D ~ ! G G h 8 0 h h r 4 5 g g m J J * * > 4 6 f g l c b ! ~ [ @.#.",
"P P X.6.3.R P  .6.,.D C 9 X + Z Z d 4 4 4 3 3 2 3 X X * 3 6 N C J U W 4.6.5.5.5.",
"P P | <.:.! R } ;.$.C N q # & N N a 4 4 7 7 7 7 7 - - 3 w r N C F J I =.;.:.>.>.",
"I P I U R ,.3.! 5 6 5 5 f B N 5 5 5 4 7 N V F P L <.<.1.1.;.G C a 5 5 6 6 s n m ",
"U U I I T 1.6.! 2 3 4 4 g C B 1 2 3 3 6 B C H I P 5.6.6.6.1.G C a 3 3 3 2 i v v ",
"k j d y i K I x 4 3 - * V | } E E V d f s a b F D ....! C V f s w 4 6 p p v S S ",
"4 4 - o O 2 4 4 5 3 O X I 6.5.5.6.] V N 6 3 s V B P I p   o 2 4 4 4 7 b n S I U ",
"5 5 ; O + 3 5 5 5 3 + X I 6.5.5.5.] V B 6 4 d C V I U s X + 3 5 5 5 7 b n D U U "
};
